<svg xmlns="http://www.w3.org/2000/svg" width="256" height="256" viewBox="0 0 100 100"><rect width="100" height="100" rx="20" fill="#10a484"></rect><path fill="#fff" d="M56.89 74.61L52.83 62.64L28.71 62.64Q28.09 64.44 27.37 66.56Q26.65 68.67 25.97 70.70Q25.30 72.72 24.66 74.48Q24.04 76.23 23.68 77.41L23.68 77.41Q22.41 77.94 20.71 77.94L20.71 77.94Q19.27 77.94 18.14 77.18Q17.02 76.41 17.02 74.70L17.02 74.70Q17.02 73.89 17.29 73.04Q17.55 72.18 17.91 71.19L17.91 71.19Q19.27 67.41 21.38 61.47Q23.50 55.53 25.97 48.83Q28.45 42.12 31.01 35.33Q33.58 28.53 35.73 23.13L35.73 23.13Q36.45 22.77 37.89 22.41Q39.34 22.05 40.87 22.05L40.87 22.05Q42.66 22.05 44.33 22.59Q46.00 23.13 46.44 24.39L46.44 24.39Q48.61 29.61 51.08 36.32Q53.56 43.02 56.08 50.04Q58.59 57.06 60.89 63.86Q63.19 70.66 64.98 76.14L64.98 76.14Q64.27 76.95 63.28 77.45Q62.28 77.94 61.03 77.94L61.03 77.94Q59.31 77.94 58.42 77.18Q57.52 76.41 56.89 74.61L56.89 74.61ZM41.14 28.17L40.77 28.17Q39.78 30.87 38.53 34.34Q37.27 37.80 35.91 41.58Q34.56 45.36 33.22 49.23Q31.87 53.10 30.70 56.61L30.70 56.61L50.94 56.61Q49.59 52.56 48.16 48.47Q46.72 44.37 45.41 40.59Q44.11 36.81 42.98 33.62Q41.86 30.42 41.14 28.17L41.14 28.17ZM82.98 77.04L82.98 77.04Q82.53 77.22 81.63 77.45Q80.73 77.67 79.66 77.67L79.66 77.67Q75.69 77.67 75.69 74.34L75.69 74.34L75.69 22.68Q76.14 22.50 77.09 22.28Q78.03 22.05 79.11 22.05L79.11 22.05Q82.98 22.05 82.98 25.38L82.98 25.38L82.98 77.04Z"></path></svg>